<svg width="65" height="113" viewBox="0 0 65 113" fill="none" xmlns="http://www.w3.org/2000/svg">
<g clip-path="url(#clip0_53_115)">
<path d="M62.4125 2.06459C61.7109 1.3613 60.8776 0.803304 59.96 0.422582C59.0425 0.0418592 58.0589 -0.154114 57.0656 -0.154114C56.0722 -0.154114 55.0886 0.0418592 54.1711 0.422582C53.2536 0.803304 52.4202 1.3613 51.7187 2.06459L1.51246 52.2708C0.952372 52.8298 0.508022 53.4937 0.204843 54.2246C-0.0983371 54.9555 -0.254395 55.739 -0.254395 56.5302C-0.254395 57.3215 -0.0983371 58.105 0.204843 58.8359C0.508022 59.5667 0.952372 60.2307 1.51246 60.7896L51.7187 110.996C54.6791 113.956 59.452 113.956 62.4125 110.996C65.3729 108.035 65.3729 103.263 62.4125 100.302L18.6708 56.5L62.4729 12.6979C65.3729 9.79793 65.3729 4.96459 62.4125 2.06459Z" fill="black"/>
</g>
<defs>
<clipPath id="clip0_53_115">
<rect width="65" height="113" fill="white"/>
</clipPath>
</defs>
</svg>
