<svg width="86" height="91" viewBox="0 0 86 91" fill="none" xmlns="http://www.w3.org/2000/svg">
<path d="M42.9156 36.5458L37.5812 39.0079V80.7599H47.8397L47.4293 39.0079L42.9156 36.5458Z" fill="#2CB3DD"/>
<path d="M19.649 39.298L42.7009 27.7721L65.7528 39.298L67.9236 40.3834V37.9564V6.24455H80.6573C81.5178 6.24455 82.3431 6.58638 82.9515 7.19485C83.56 7.80332 83.9018 8.62858 83.9018 9.48909V85.4018C83.9018 86.2623 83.56 87.0876 82.9515 87.6961C82.3431 88.3045 81.5178 88.6464 80.6573 88.6464H4.74455C3.88404 88.6464 3.05877 88.3045 2.45031 87.6961C1.84184 87.0876 1.5 86.2623 1.5 85.4018V9.48909C1.5 8.62859 1.84184 7.80332 2.45031 7.19485C3.05878 6.58638 3.88404 6.24455 4.74455 6.24455H17.4782V37.9564V40.3834L19.649 39.298ZM48.9455 39.0761V38.149L48.1163 37.7344L43.3717 35.3622L42.7009 35.0268L42.0301 35.3622L37.2855 37.7344L36.4564 38.149V39.0761V80.6573V82.1573H37.9564H47.4455H48.9455V80.6573V39.0761ZM56.9346 50.69H55.4346V52.19V61.6791V63.1791H56.9346H75.9127H77.4127V61.6791V52.19V50.69H75.9127H56.9346ZM60.6833 1.5L42.7009 21.4805L24.7185 1.5H60.6833Z" stroke="#393939" stroke-width="3"/>
</svg>
