<svg width="82" height="91" viewBox="0 0 82 91" fill="none" xmlns="http://www.w3.org/2000/svg">
<path d="M1.70877 82.4432L26.15 33.5409C31.638 34.8029 36.1875 35.4484 40.7672 35.4484C45.3469 35.4484 49.8964 34.8029 55.3844 33.5409L79.8232 82.4384C79.5311 82.7289 79.0148 83.1283 78.2269 83.53L78.2111 83.5381L78.1955 83.5465C76.3375 84.5498 73.2865 85.5199 69.4355 86.3104C61.773 87.8832 51.2751 88.7008 40.7672 88.7008C30.2593 88.7008 19.7613 87.8832 12.0989 86.3104L12.0987 86.3104C8.24875 85.5205 5.20634 84.5502 3.32835 83.5441L3.31861 83.5389L3.30879 83.5338C2.52658 83.1295 2.00209 82.7304 1.70877 82.4432Z" stroke="#393939" stroke-width="3"/>
<path d="M25.9705 31.6897L26.2057 28.54C29.0162 29.2535 35.0011 30.4084 40.6811 30.3321C46.3713 30.2557 52.3111 29.1664 55.0679 28.5206L55.4615 31.6054C51.9056 32.6305 44.0056 34.2919 37.7239 33.5995C31.6744 32.9327 27.5999 32.1036 25.9705 31.6897Z" stroke="#393939"/>
<path d="M51.1246 6.44379L51.1282 6.43974C52.7266 4.61502 53.9884 3.05813 54.9038 1.89161L57.1554 3.01521C57.1266 11.5223 56.9293 19.6764 54.5966 27.7009C49.0879 29.0089 44.9301 29.6427 40.8082 29.6427C36.688 29.6427 32.532 29.0094 27.0266 27.7025C24.7533 19.6172 24.4991 9.47774 24.4803 3.01381L26.7142 1.89355C27.6295 3.05986 28.8908 4.61604 30.4883 6.43974L30.4883 6.43974L30.4919 6.44379C31.9759 8.12566 33.5846 9.86501 35.1547 11.2506C35.9276 11.9418 36.7167 12.5728 37.5353 13.0803L37.5353 13.0803L37.5435 13.0854C38.326 13.5636 39.3455 14.1467 40.8082 14.1467C42.271 14.1467 43.2905 13.5636 44.073 13.0854L44.073 13.0854L44.0812 13.0803C44.8997 12.5728 45.6888 11.9418 46.4618 11.2506C48.0319 9.865 49.6406 8.12566 51.1246 6.44379Z" fill="#2CB3DD" stroke="#393939" stroke-width="3"/>
</svg>
