<svg width="24" height="22" viewBox="0 0 24 22" fill="none" xmlns="http://www.w3.org/2000/svg">
<path d="M10.9328 19.6777L10.9314 19.6764C7.82173 16.8591 5.32124 14.5883 3.58648 12.4679C1.86269 10.3609 1 8.5249 1 6.59401C1 3.44371 3.45424 1 6.6 1C8.38603 1 10.1165 1.83586 11.2415 3.14536L12 4.02836L12.7585 3.14536C13.8835 1.83586 15.614 1 17.4 1C20.5458 1 23 3.4437 23 6.59401C23 8.5249 22.1373 10.3609 20.4135 12.4679C18.6788 14.5883 16.1783 16.8591 13.0686 19.6763L13.0672 19.6777L12 20.6483L10.9328 19.6777Z" stroke="white" stroke-width="2"/>
</svg>
