<svg width="151" height="96" viewBox="0 0 151 96" fill="none" xmlns="http://www.w3.org/2000/svg">
<path fill-rule="evenodd" clip-rule="evenodd" d="M47.6561 89.6611C43.9455 90.1173 40.2305 90.5462 36.5251 91.0455C35.6089 91.1699 35.1095 90.9029 34.7351 90.0673C31.6959 83.3121 28.6374 76.5642 25.5603 69.8278C25.2029 69.0461 25.3686 68.5604 26.0834 68.1497C27.1755 67.5192 28.2144 66.787 29.3347 66.2155C31.1043 65.3152 32.3898 64.0746 32.8801 62.0751C33.039 61.4241 33.4134 60.8304 33.634 60.1908C33.9128 59.3774 34.3562 59.1962 35.174 59.5052C37.4475 60.3664 39.7537 61.1372 42.0334 61.9819C42.91 62.3079 43.1707 62.0864 43.0158 61.169C42.849 60.1885 42.8303 59.182 42.6261 58.2112C42.3875 57.0723 42.6182 56.5911 43.9076 56.3758C47.2947 55.8095 48.855 51.9871 46.9797 49.1468C45.9159 47.5353 43.8138 46.6793 42.034 47.1252C39.9913 47.6398 38.5853 49.2372 38.3529 51.323C38.3184 51.6366 38.3359 51.9547 38.3416 52.2711C38.3557 53.0169 38.0124 53.5259 37.2761 53.5884C36.4617 53.6566 36.0885 53.1612 35.9759 52.3614C35.45 48.6572 38.7686 44.7877 42.6414 44.6167C46.029 44.4678 49.0654 46.6867 49.9171 49.9359C50.7677 53.1789 49.3086 56.5019 46.3446 58.1067C45.9261 58.3339 45.2101 58.3555 45.1977 58.9156C45.1745 59.8102 45.2678 60.7418 45.5172 61.5979C45.6891 62.1881 46.1223 61.6337 46.3536 61.486C48.3557 60.1852 50.3639 58.8877 52.3156 57.5153C53.2035 56.891 53.8216 56.8768 54.3549 57.8931C55.8808 60.7986 58.3183 62.2954 61.4983 63.0168C64.5358 63.7053 64.5076 63.9047 63.9573 66.9324C62.7544 73.5121 61.5079 80.0833 60.3452 86.6664C60.1438 87.8155 59.6631 88.2399 58.5224 88.3586C54.8933 88.7301 51.2761 89.2181 47.6561 89.6611ZM44.916 67.0863C44.2079 69.0046 43.6277 70.7048 42.9502 72.3641C42.362 73.8046 41.6935 73.9864 40.472 73.0605C38.8913 71.8625 37.3745 70.5804 35.8023 69.3722C34.7379 68.5548 33.8234 67.1227 32.5719 67.0795C31.2678 67.0358 30.1989 68.4088 28.9541 69.0206C28.1658 69.4097 28.0679 69.8681 28.4236 70.6423C30.9935 76.2677 33.5537 81.8971 36.063 87.5497C36.4708 88.4688 36.9684 88.6988 37.9265 88.5773C44.2204 87.7701 50.52 86.989 56.8246 86.2693C57.8924 86.1478 58.2447 85.6865 58.4195 84.6987C59.3085 79.6726 60.2903 74.6624 61.1714 69.6346C61.4089 68.2804 62.3263 66.7069 61.5944 65.5958C60.9203 64.5739 59.14 64.7244 57.915 64.1825C57.0277 63.7883 56.5532 64.0979 56.0221 64.821C54.3917 67.0369 52.6984 69.208 51.0029 71.3757C49.601 73.1605 49.0541 73.144 47.776 71.316C46.8496 69.9908 45.9617 68.6365 44.916 67.0863ZM35.6026 62.0324C34.8194 62.521 34.8409 63.4849 34.4229 64.191C34.061 64.7988 34.1843 65.2459 34.7492 65.6935C36.6138 67.1801 38.4535 68.7002 40.2865 70.226C40.9182 70.7514 41.3163 70.8133 41.6206 69.8902C42.0883 68.4792 42.6312 67.092 43.1838 65.71C43.4699 64.9976 43.44 64.5574 42.5849 64.2967C40.4358 63.64 38.3105 62.9095 36.1767 62.2097C36.007 62.154 35.8334 62.1034 35.6026 62.0324ZM49.5738 69.5892C49.6802 69.4926 49.8357 69.3915 49.9414 69.2529C51.5142 67.1642 53.0796 65.0681 54.6524 62.9765C54.9142 62.6272 54.8594 62.3318 54.6021 62.0046C54.2124 61.5098 53.8488 60.9918 53.4823 60.4777C53.1543 60.0159 52.8438 59.8199 52.2635 60.2005C50.343 61.4559 48.3941 62.6675 46.4339 63.8638C45.8333 64.2308 45.7428 64.5943 46.15 65.1698C47.0877 66.4939 47.9931 67.8413 48.9184 69.1762C49.0654 69.3881 49.1836 69.6619 49.5738 69.5892Z" fill="#64D7E0"/>
<path fill-rule="evenodd" clip-rule="evenodd" d="M82.7276 75.3135C82.5042 76.0116 82.2854 76.7092 82.058 77.4062C81.7209 78.4321 81.4404 79.4835 81.0219 80.4764C80.5571 81.5887 79.3966 82.0857 78.0132 81.9221C77.688 81.8846 77.3527 81.829 77.0343 81.8665C75.1143 82.0852 73.5098 81.2558 72.0236 80.2316C71.4603 79.8442 71.0949 79.1131 70.7432 78.4803C69.8824 76.9347 69.206 75.3174 68.9221 73.5446C68.7253 72.3119 68.3345 71.1088 68.1751 69.8722C67.7786 66.8144 67.4184 63.7486 67.1294 60.6766C66.9201 58.4527 66.8285 56.214 66.7267 53.9799C66.6939 53.2783 66.6628 52.5223 66.8896 51.8815C67.0621 51.3958 67.5722 50.9119 68.0546 50.6744C69.2021 50.1086 70.4576 50.1706 71.6203 50.617C72.0049 50.7647 72.3832 51.3492 72.4664 51.7918C72.7639 53.3385 72.9629 54.9092 73.1399 56.4759C73.3961 58.7492 73.6404 61.0248 73.8169 63.3032C73.947 64.9926 74.0742 66.6956 73.999 68.3821C73.9164 70.251 74.4797 71.97 74.8886 73.7303C75.0311 74.3472 75.25 74.9499 75.4796 75.5435C75.6798 76.0565 76.0446 76.4768 76.6458 76.3763C77.2775 76.2695 77.7706 75.8883 77.9454 75.2254C78.7988 71.9489 79.7478 68.69 79.8201 65.267C79.8411 64.2189 79.7738 63.1703 79.7958 62.1223C79.8207 60.8345 79.8744 59.5473 79.9548 58.2635C80.0656 56.5088 80.1702 54.7547 80.3602 53.0085C80.4767 51.94 80.354 50.7449 81.3827 49.9803C82.2927 49.3003 83.3819 49.06 84.4457 49.2441C85.2963 49.3957 85.6537 50.2711 85.8279 51.0595C85.9834 51.7656 86.0044 52.5103 86.0004 53.238C85.9919 55.6204 85.8845 58.0045 85.9342 60.3818C85.9699 62.1694 86.1933 63.9542 86.3267 65.7402C86.3771 66.398 86.4687 67.0603 86.441 67.7164C86.394 68.7872 86.7017 69.7614 87.0704 70.7373C87.6654 72.3022 88.2111 73.8831 88.8219 75.4413C89.06 76.0479 89.3925 76.6234 89.7273 77.1886C90.648 78.7439 90.4348 79.358 88.8671 80.2015C87.7513 80.8036 86.6796 81.1109 85.561 80.3691C85.1956 80.1271 84.8631 79.738 84.6748 79.3392C84.0521 78.0299 83.5047 76.6842 82.9272 75.3527C82.8605 75.3402 82.7932 75.3265 82.7276 75.3135Z" fill="white"/>
<path fill-rule="evenodd" clip-rule="evenodd" d="M99.2952 54.4053C100.214 53.201 101.184 52.0308 102.039 50.7823C102.976 49.4161 104.336 49.2662 105.754 49.386C107.939 49.5695 109.869 50.5931 111.814 51.5116C112.026 51.6122 112.184 51.9468 112.256 52.2029C112.782 54.0491 112.598 55.9072 112.326 57.7692C111.867 60.9327 111.267 64.0632 109.878 66.9688C108.581 69.6823 106.937 72.1772 104.578 74.0756C103.714 74.7709 102.61 75.185 101.574 75.6258C100.928 75.903 100.7 76.2319 100.783 76.9465C101.264 80.9854 101.712 85.0281 102.146 89.0743C102.328 90.7705 101.35 91.5596 99.6803 91.0926C98.5667 90.7836 97.4583 90.4655 96.3628 90.0963C96.0812 90.002 95.8352 89.7356 95.6208 89.5027C94.3981 88.1802 93.6307 86.6136 93.431 84.8299C92.9718 80.7309 92.4368 76.6318 92.2044 72.5175C92.0189 69.1967 92.2225 65.8565 92.2677 62.5244C92.2999 59.9517 92.3661 57.3773 92.3899 54.8046C92.4097 52.7642 92.3853 50.7221 92.3808 48.6816C92.3791 47.921 93.1138 47.0377 94.0203 47.0292C95.2498 47.0173 96.5749 46.9724 97.5092 48.0227C97.8338 48.3868 98.1205 48.8816 98.1991 49.3553C98.4593 50.9572 98.6171 52.5784 98.8139 54.1934C98.9739 54.2627 99.1374 54.3348 99.2952 54.4053ZM105.575 54.2616C105.257 54.495 105.056 54.5768 104.957 54.7239C103.455 56.9808 101.924 59.2178 100.503 61.524C100.125 62.1335 99.9908 62.9561 99.941 63.694C99.8788 64.6494 99.9845 65.6191 100.067 66.578C100.205 68.1373 100.385 69.6954 100.57 71.495C101.116 70.9928 101.526 70.7361 101.776 70.368C102.471 69.3569 103.143 68.3287 103.727 67.2545C104.098 66.5757 104.408 65.8236 104.551 65.0658C104.944 63.005 105.317 60.9338 105.533 58.8503C105.687 57.3926 105.571 55.9078 105.575 54.2616Z" fill="white"/>
<path fill-rule="evenodd" clip-rule="evenodd" d="M52.6849 26.4545C52.4332 26.851 52.1012 27.218 51.9406 27.648C51.3163 29.3396 50.7434 31.0455 50.1558 32.749C49.6886 34.1033 49.2611 35.474 48.756 36.8151C48.3404 37.9183 47.7997 38.1625 46.4187 37.8723C45.615 37.7036 45.0517 36.8447 45.0783 35.8796C45.097 35.2212 45.175 34.5657 45.1648 33.9062C45.1484 32.8047 44.9471 31.6862 45.0783 30.6041C45.1892 29.6844 44.8979 28.8585 44.8662 27.9888C44.7492 24.6669 44.7899 21.3472 45.2502 18.048C45.3622 17.2476 45.3939 16.4739 45.1631 15.694C45.0975 15.4759 45.0506 15.2259 45.0896 15.0072C45.3509 13.5428 45.5913 12.071 45.9368 10.6253C46.1263 9.83232 46.9401 9.40967 47.742 9.51987C48.1984 9.58406 48.6673 9.62442 49.1095 9.74939C49.951 9.98911 50.0183 10.109 49.9686 10.9923C49.8623 12.8918 49.752 14.7908 49.6349 16.6909C49.4585 19.5789 49.2735 22.4657 49.0942 25.3525C49.0852 25.4848 49.0931 25.6183 49.2039 25.8018C49.9601 24.5885 50.7004 23.366 51.478 22.1692C51.8671 21.5682 52.2912 20.9859 52.7584 20.4457C53.2595 19.8663 53.9568 19.6294 54.6971 19.7442C55.7744 19.9123 56.7511 20.3611 57.3845 21.2938C57.6057 21.6176 57.734 22.0908 57.7075 22.4827C57.6158 23.8182 57.4202 25.1457 57.2929 26.4784C57.0384 29.1431 56.6917 31.8095 57.0322 34.4946C57.0888 34.936 57.1855 35.3746 57.2743 35.8108C57.5672 37.2412 56.6544 38.1904 55.2128 38.0336C54.3905 37.9427 53.674 37.7666 53.3765 36.8969C53.2295 36.4766 53.1051 36.0386 53.061 35.5989C52.9778 34.7929 52.915 33.9777 52.9235 33.166C52.9439 31.2278 53.0151 29.2874 53.0502 27.348C53.0553 27.0748 52.9744 26.7987 52.9331 26.5227C52.85 26.4999 52.768 26.4778 52.6849 26.4545Z" fill="#09BCE3"/>
<path fill-rule="evenodd" clip-rule="evenodd" d="M116.953 23.6444C117.108 22.3777 117.256 21.1211 117.419 19.8669C117.503 19.2017 117.608 18.5371 117.722 17.8753C117.84 17.1772 117.922 16.4654 118.12 15.7917C118.357 14.9953 118.659 14.2108 119.014 13.465C119.286 12.8952 119.847 12.7766 120.404 13.0969C120.953 13.4111 121.515 13.7223 121.998 14.129C122.204 14.3029 122.346 14.7289 122.313 15.0141C122.136 16.5671 122.103 18.1861 121.634 19.6476C120.371 23.5655 120.106 27.5412 120.577 31.5965C120.802 33.5216 121.136 35.4342 121.406 37.3531C121.52 38.1637 121.241 38.5545 120.493 38.8033C119.447 39.1515 118.48 38.9766 117.81 38.0921C117.424 37.5837 117.3 36.8492 117.101 36.2017C116.972 35.7876 116.922 35.3468 116.702 34.9082C116.304 35.6671 115.888 36.4164 115.513 37.1884C115.025 38.1944 114.227 38.6414 113.185 38.734C111.674 38.8692 110.294 38.521 109.083 37.5661C108.415 37.0396 108.141 36.2647 108.021 35.4291C107.847 34.2158 108.059 33.0405 108.418 31.897C108.989 30.069 109.546 28.2308 110.22 26.4432C110.612 25.4122 111.222 24.472 111.741 23.4961C112.062 22.8906 112.609 22.702 113.227 22.6515C114.393 22.5594 115.466 22.8605 116.474 23.4547C116.582 23.5183 116.69 23.5836 116.798 23.6444C116.812 23.6507 116.833 23.6444 116.953 23.6444ZM111.846 34.8838C111.916 35.0423 112.026 35.528 112.157 35.5359C112.448 35.5512 112.765 35.3524 113.041 35.1849C113.182 35.0997 113.273 34.9037 113.354 34.739C114.271 32.9064 115.197 31.0796 116.086 29.2329C116.512 28.3484 116.546 27.4117 116.25 26.4608C116.041 25.7859 115.438 25.8865 114.966 25.7462C114.583 25.632 114.352 25.9018 114.21 26.2211C113.946 26.813 113.734 27.4293 113.463 28.0138C112.476 30.1366 112.21 32.4372 111.846 34.8838Z" fill="#09BCE3"/>
<path fill-rule="evenodd" clip-rule="evenodd" d="M98.6047 32.3088C98.3021 32.9933 98.0142 33.721 97.667 34.4191C97.1049 35.541 96.5608 36.6782 95.907 37.7444C95.1385 38.9981 93.6494 39.5372 92.248 39.1941C89.3773 38.492 88.2524 36.7174 88.0805 33.8851C87.973 32.1151 87.8152 30.3422 87.8254 28.5716C87.8418 25.5683 87.917 22.5202 89.5209 19.8714C90.4071 18.4024 91.4081 16.8511 93.3853 16.6654C93.9723 16.6114 94.5961 16.6017 95.1633 16.7375C96.6066 17.0863 97.9956 17.5844 99.2669 18.4115C100.155 18.9898 101.116 19.4522 102.058 19.9441C102.458 20.1537 102.792 20.3741 102.706 20.9098C102.129 24.4993 103.079 27.9388 103.676 31.4204C103.93 32.9104 104.463 34.2703 105.039 35.6364C105.513 36.7566 105.291 37.2946 104.199 37.782C103.857 37.9348 103.497 38.0569 103.132 38.1455C101.888 38.4522 101.576 38.2205 101.036 37.0628C100.626 36.1795 100.005 35.4013 99.5491 34.5373C99.1866 33.8499 98.9355 33.1018 98.6047 32.3088ZM92.3667 31.6618C92.3831 31.9793 92.3899 32.2957 92.4171 32.6082C92.4691 33.237 92.4996 33.8715 92.6105 34.4884C92.6506 34.7128 92.8774 35.028 93.0612 35.0627C93.2382 35.0962 93.5312 34.8593 93.6658 34.6656C93.8926 34.3373 94.0781 33.9647 94.2064 33.5852C95.1611 30.774 96.1101 27.961 97.0291 25.1349C97.1846 24.6521 97.236 24.1136 97.236 23.6023C97.2298 22.4685 96.8181 21.5381 95.7532 21.0172C95.1458 20.7184 94.7194 20.7945 94.401 21.3955C93.9734 22.2049 93.512 23.0292 93.2761 23.904C92.5935 26.4369 92.3085 29.0334 92.3667 31.6618Z" fill="#09BCE3"/>
<path fill-rule="evenodd" clip-rule="evenodd" d="M32.4039 11.019C30.1514 11.019 28.4157 11.2525 26.7847 10.9406C25.6214 10.7174 23.6895 9.73124 23.707 9.13479C23.7461 7.89474 24.6096 6.40985 25.5886 5.55097C26.4403 4.80626 27.8994 4.62165 29.1249 4.4751C36.1597 3.63552 43.203 2.87436 50.2463 2.10749C50.9232 2.03478 51.7127 1.89275 52.2845 2.15121C53.8137 2.84593 56.2851 3.51455 56.5204 4.60293C57.0554 7.06598 54.5896 7.63514 52.6651 7.92485C49.3878 8.41564 46.0884 8.84397 42.7828 9.00245C39.739 9.14901 38.6572 10.4049 38.9054 13.4855C39.4529 20.2339 39.7486 27.0044 40.1117 33.7659C40.2226 35.8262 40.5353 37.9547 40.1474 39.9309C39.9195 41.0801 38.4813 41.9889 37.59 43.0058C36.6687 42.1338 35.0903 41.3658 34.9348 40.3717C34.1198 35.1673 33.5599 29.9162 33.1171 24.6629C32.7382 20.2157 32.6398 15.7429 32.4039 11.019Z" fill="#09BCE3"/>
<path fill-rule="evenodd" clip-rule="evenodd" d="M69.6235 23.7972C70.7579 25.4883 72.0655 26.9646 72.8035 28.6869C73.3543 29.9701 74.0743 31.6493 73.3119 33.0308C71.7821 33.1541 70.6233 31.9282 69.6263 31.0006C68.4166 29.8753 67.583 28.3416 66.5865 26.9856C66.3326 27.0436 66.0781 27.1015 65.8224 27.1589C65.8224 28.3234 65.8185 29.489 65.8236 30.6535C65.8321 32.3764 66.0057 34.1209 65.7862 35.8142C65.6912 36.5566 64.6863 37.8172 64.2892 37.7473C63.4602 37.599 62.5949 36.8412 62.065 36.1022C61.6657 35.5489 61.694 34.6355 61.6578 33.876C61.4174 28.7102 61.1946 23.5444 60.9989 18.378C60.9345 16.6994 61.2551 15.1453 59.0987 14.1296C57.5621 13.4065 57.8211 11.6609 59.3566 10.6668C62.3353 8.73769 69.9102 10.2527 72.0281 13.1321C74.5872 16.6108 74.0522 19.1932 69.6235 23.7972ZM65.8315 19.7879C66.1832 20.0208 66.5367 20.2514 66.889 20.4843C67.7702 19.3988 69.3565 18.3201 69.3695 17.2243C69.3893 15.4861 67.8114 14.6482 65.8315 14.943C65.8315 16.6319 65.8315 18.2099 65.8315 19.7879Z" fill="#09BCE3"/>
<path fill-rule="evenodd" clip-rule="evenodd" d="M81.1859 19.6817C80.2839 21.9715 80.9269 23.002 83.124 23.0304C83.7592 23.0383 84.4537 23.015 85.0073 23.2621C85.5067 23.4871 86.221 24.1091 86.1757 24.472C86.1056 25.0361 85.4971 25.5525 85.0582 26.037C84.9298 26.179 84.6086 26.158 84.3733 26.1876C80.8687 26.6312 80.8687 26.6295 80.8738 30.1048C80.8755 30.9058 80.9484 31.7152 80.8613 32.5059C80.6244 34.6446 81.0972 36.0972 83.65 36.1369C84.1556 36.1437 85.5412 35.9881 85.1464 37.3201C85.0922 38.8766 84.1172 38.5761 83.486 38.7301C79.133 39.7951 77.3957 38.4034 77.2633 33.9118C77.1338 29.5112 76.9749 25.1105 76.8748 20.7093C76.8482 19.517 76.7798 18.5251 75.3518 18.1116C74.9497 17.994 74.4017 17.0113 74.538 16.6926C74.7721 16.1456 75.5616 15.3793 75.9982 15.4509C79.0488 15.9491 82.0789 16.6029 85.0871 17.3198C85.4021 17.3942 85.7923 18.2576 85.7001 18.6507C85.6034 19.0614 85 19.58 84.5628 19.6363C83.4775 19.7766 82.3623 19.6817 81.1859 19.6817Z" fill="#09BCE3"/>
<path fill-rule="evenodd" clip-rule="evenodd" d="M42.7533 54.8528C41.3333 54.9022 40.0744 53.5968 40.0025 52.0001C39.9307 50.4499 41.3881 49.0394 43.1017 49.0007C44.5438 48.9667 45.6433 50.1028 45.7106 51.6939C45.779 53.3083 44.3872 54.7977 42.7533 54.8528Z" fill="#09BCE3"/>
<path fill-rule="evenodd" clip-rule="evenodd" d="M83.2502 43.413C81.6588 43.1222 80.6165 43.0137 79.6285 42.7166C79.167 42.578 78.4804 42.0639 78.4895 41.7367C78.5047 41.2033 78.9905 40.2428 79.3067 40.2308C81.1633 40.1587 83.0376 40.2411 84.8846 40.4558C85.1691 40.4899 85.6521 41.8509 85.5169 41.9651C84.737 42.6212 83.7977 43.0858 83.2502 43.413Z" fill="#09BCE3"/>
<path fill-rule="evenodd" clip-rule="evenodd" d="M55.6036 40.0661C60.0143 40.4597 64.4244 40.8551 68.8345 41.251C69.8943 41.3459 70.5871 41.848 70.3739 42.9949C70.1743 44.0629 70.4373 45.5363 68.5772 45.4545C65.8332 45.3347 63.0875 45.2915 60.3434 45.1677C57.8788 45.0569 55.4181 44.8422 52.9541 44.7496C51.6821 44.7019 51.0866 44.3952 51.4209 42.9154C51.9989 40.3512 51.9202 40.3325 55.6036 40.0661Z" fill="#09BCE3"/>
<path fill-rule="evenodd" clip-rule="evenodd" d="M126.172 36.0187C128.685 34.3288 131.557 33.6261 134.477 33.0246C137.712 32.3571 140.936 31.634 144.168 30.9517C144.552 30.8705 145 30.7666 145.338 30.8904C145.922 31.1029 146.442 31.4868 146.989 31.7993C146.643 32.3866 146.416 33.3307 145.927 33.4977C144.03 34.1442 142.071 34.6708 140.094 35.0076C136.325 35.6512 132.533 36.1551 128.743 36.6669C127.911 36.7788 127.053 36.6828 126.208 36.6828C126.195 36.4613 126.183 36.2392 126.172 36.0187Z" fill="#09BCE3"/>
<path fill-rule="evenodd" clip-rule="evenodd" d="M23.6448 45.8755C21.7491 45.3541 20.0417 44.9911 18.4112 44.4123C15.1424 43.2506 11.8758 42.0605 8.69126 40.6876C7.62974 40.2297 6.76728 39.2317 5.92915 38.3677C5.6673 38.0967 5.7838 37.4576 5.72668 36.9873C6.19665 36.9475 6.73504 36.7385 7.12527 36.8964C9.30374 37.7775 11.4539 38.7295 13.599 39.6918C16.921 41.1823 20.2413 42.6774 23.5311 44.2367C23.9332 44.4282 24.1425 45.0297 24.4399 45.441C24.1261 45.6125 23.8116 45.7847 23.6448 45.8755Z" fill="#09BCE3"/>
<path fill-rule="evenodd" clip-rule="evenodd" d="M24.0644 41.6992C23.3671 41.1198 22.5595 40.6324 21.9923 39.9451C19.6594 37.1225 17.322 34.2965 15.169 31.3381C14.5944 30.549 14.1408 28.7211 14.5384 28.3484C15.6978 27.2652 16.6677 28.7284 17.2033 29.4799C19.4174 32.5809 21.4443 35.8177 23.4972 39.0323C23.9451 39.7332 24.2171 40.5478 24.5706 41.3101C24.4026 41.4396 24.2335 41.5697 24.0644 41.6992Z" fill="#09BCE3"/>
<path fill-rule="evenodd" clip-rule="evenodd" d="M127.904 31.6982C128.512 30.6456 128.981 29.4726 129.756 28.5643C131.538 26.475 133.449 24.4943 135.359 22.5186C135.846 22.0136 136.477 21.5506 137.129 21.3348C137.68 21.1513 138.827 21.2024 138.893 21.4114C139.105 22.0823 139.184 23.0139 138.858 23.5837C138.438 24.3227 137.591 24.8243 136.907 25.4037C134.514 27.4333 132.12 29.4652 129.7 31.4636C129.314 31.7817 128.793 31.9345 128.335 32.1629C128.192 32.0084 128.048 31.8539 127.904 31.6982Z" fill="#09BCE3"/>
<path fill-rule="evenodd" clip-rule="evenodd" d="M21.1773 48.797C20.4755 49.2043 19.8177 49.7701 19.0599 49.9922C16.1451 50.8482 13.2071 51.6316 10.2584 52.3621C9.14312 52.6376 7.78071 52.7626 7.55562 51.2232C7.3475 49.8036 8.52045 49.3128 9.73354 49.1702C12.9673 48.7879 16.2033 48.4215 19.4422 48.0909C19.9631 48.0364 20.5054 48.196 21.0387 48.2551C21.0851 48.4357 21.1315 48.6164 21.1773 48.797Z" fill="#09BCE3"/>
<path fill-rule="evenodd" clip-rule="evenodd" d="M131.838 38.876C132.678 38.9709 133.531 38.9987 134.354 39.1737C136.866 39.7093 139.376 40.2746 141.871 40.8886C142.912 41.1448 143.889 41.6788 143.55 42.987C143.224 44.2412 142.176 44.2537 141.081 44.1282C137.895 43.7624 135.364 41.8725 132.59 40.5449C132.119 40.3194 131.604 40.1837 131.109 40.007C131.353 39.6298 131.595 39.2532 131.838 38.876Z" fill="#09BCE3"/>
<path fill-rule="evenodd" clip-rule="evenodd" d="M59.494 4.85455C60.8513 5.65777 60.9367 6.35247 60.844 6.75351C60.706 7.34996 60.003 8.13218 59.4522 8.21114C59.0291 8.27079 58.1073 7.39656 58.07 6.88873C58.0315 6.36783 58.0683 5.42487 59.494 4.85455Z" fill="#09BCE3"/>
<path fill-rule="evenodd" clip-rule="evenodd" d="M96.3436 9.70343C95.3324 9.50348 95.2267 8.09813 95.3483 7.69141C95.5015 7.18471 95.7464 6.53429 96.7627 6.5377C97.0092 6.53827 97.8259 7.36878 97.7631 7.71131C97.6562 8.28731 97.7665 9.80397 96.3436 9.70343Z" fill="#09BCE3"/>
<path fill-rule="evenodd" clip-rule="evenodd" d="M102.487 44.7297C102.017 45.876 101.231 45.5784 100.727 45.6505C100.53 45.6789 99.9614 44.9002 100.038 44.6207C100.158 44.1867 100.653 43.6198 101.047 43.5704C101.38 43.5289 102.36 43.7544 102.487 44.7297Z" fill="#09BCE3"/>
<path fill-rule="evenodd" clip-rule="evenodd" d="M56.4327 52.3728C56.0414 53.5362 55.3887 53.5527 55.0285 53.5356C54.6699 53.5186 54.1547 52.9187 54.0642 52.4972C54.0054 52.2234 54.5653 51.5469 54.8786 51.5264C55.2813 51.5003 56.1183 51.5253 56.4327 52.3728Z" fill="#09BCE3"/>
<path fill-rule="evenodd" clip-rule="evenodd" d="M27.7512 32.6111C27.3599 33.7744 26.7072 33.7909 26.347 33.7739C25.9884 33.7568 25.4732 33.157 25.3827 32.7355C25.3239 32.4617 25.8838 31.7851 26.1971 31.7647C26.5998 31.7386 27.4373 31.7636 27.7512 32.6111Z" fill="#09BCE3"/>
</svg>
