<svg width="227" height="63" viewBox="0 0 227 63" fill="none" xmlns="http://www.w3.org/2000/svg">
<path fill-rule="evenodd" clip-rule="evenodd" d="M193.278 52.0515C189.567 52.5077 185.852 52.9365 182.147 53.4358C181.231 53.5602 180.731 53.2933 180.357 52.4577C177.318 45.7025 174.259 38.9546 171.182 32.2181C170.825 31.4365 170.99 30.9508 171.705 30.5401C172.797 29.9096 173.836 29.1774 174.957 28.6059C176.726 27.7056 178.012 26.465 178.502 24.4654C178.661 23.8144 179.035 23.2208 179.256 22.5812C179.535 21.7678 179.978 21.5866 180.796 21.8956C183.069 22.7568 185.376 23.5276 187.655 24.3723C188.532 24.6983 188.793 24.4768 188.638 23.5594C188.471 22.5789 188.452 21.5724 188.248 20.6016C188.009 19.4626 188.24 18.9815 189.529 18.7662C192.917 18.1999 194.477 14.3775 192.602 11.5372C191.538 9.92567 189.436 9.06965 187.656 9.51556C185.613 10.0302 184.207 11.6275 183.975 13.7134C183.94 14.027 183.958 14.3451 183.963 14.6615C183.978 15.4073 183.634 15.9163 182.898 15.9788C182.084 16.047 181.71 15.5516 181.598 14.7518C181.072 11.0476 184.39 7.17804 188.263 7.00706C191.651 6.85823 194.687 9.07703 195.539 12.3263C196.39 15.5692 194.93 18.8923 191.966 20.497C191.548 20.7243 190.832 20.7459 190.819 21.3059C190.796 22.2006 190.89 23.1322 191.139 23.9883C191.311 24.5785 191.744 24.0241 191.975 23.8764C193.977 22.5755 195.986 21.2781 197.937 19.9057C198.825 19.2814 199.443 19.2672 199.977 20.2835C201.503 23.189 203.94 24.6858 207.12 25.4072C210.158 26.0957 210.129 26.2951 209.579 29.3228C208.376 35.9025 207.13 42.4736 205.967 49.0567C205.766 50.2059 205.285 50.6302 204.144 50.749C200.515 51.1205 196.898 51.6084 193.278 52.0515ZM190.538 29.4767C189.83 31.395 189.25 33.0952 188.572 34.7545C187.984 36.195 187.315 36.3768 186.094 35.4509C184.513 34.2529 182.996 32.9708 181.424 31.7626C180.36 30.9452 179.445 29.5131 178.194 29.4699C176.89 29.4262 175.821 30.7992 174.576 31.4109C173.788 31.8001 173.69 32.2585 174.045 33.0327C176.615 38.6581 179.176 44.2874 181.685 49.9401C182.093 50.8592 182.59 51.0892 183.548 50.9677C189.842 50.1605 196.142 49.3794 202.446 48.6597C203.514 48.5381 203.867 48.0769 204.041 47.089C204.93 42.063 205.912 37.0528 206.793 32.025C207.031 30.6708 207.948 29.0973 207.216 27.9862C206.542 26.9643 204.762 27.1148 203.537 26.5729C202.65 26.1786 202.175 26.4882 201.644 27.2114C200.014 29.4273 198.32 31.5984 196.625 33.7661C195.223 35.5509 194.676 35.5344 193.398 33.7064C192.471 32.3812 191.584 31.0269 190.538 29.4767ZM181.224 24.4228C180.441 24.9113 180.463 25.8753 180.045 26.5814C179.683 27.1892 179.806 27.6363 180.371 28.0839C182.236 29.5705 184.075 31.0906 185.908 32.6163C186.54 33.1418 186.938 33.2037 187.242 32.2806C187.71 30.8696 188.253 29.4824 188.806 28.1004C189.092 27.388 189.062 26.9478 188.207 26.6871C186.058 26.0304 183.932 25.2999 181.798 24.6001C181.629 24.5444 181.455 24.4938 181.224 24.4228ZM195.196 31.9795C195.302 31.883 195.458 31.7819 195.563 31.6433C197.136 29.5546 198.701 27.4585 200.274 25.3669C200.536 25.0176 200.481 24.7222 200.224 24.395C199.834 23.9002 199.471 23.3822 199.104 22.8681C198.776 22.4063 198.466 22.2103 197.885 22.5909C195.965 23.8463 194.016 25.0579 192.056 26.2542C191.455 26.6212 191.365 26.9847 191.772 27.5602C192.71 28.8843 193.615 30.2317 194.54 31.5666C194.687 31.7785 194.805 32.0523 195.196 31.9795Z" fill="#64D7E0"/>
<path fill-rule="evenodd" clip-rule="evenodd" d="M52.6849 29.4545C52.4332 29.851 52.1012 30.2179 51.9406 30.6479C51.3163 32.3396 50.7434 34.0454 50.1558 35.749C49.6886 37.1032 49.2611 38.4739 48.756 39.8151C48.3404 40.9182 47.7997 41.1625 46.4187 40.8722C45.615 40.7035 45.0517 39.8446 45.0783 38.8795C45.097 38.2212 45.175 37.5656 45.1648 36.9061C45.1484 35.8047 44.9471 34.6862 45.0783 33.6041C45.1892 32.6844 44.8979 31.8584 44.8662 30.9888C44.7492 27.6668 44.7899 24.3472 45.2502 21.0479C45.3622 20.2476 45.3939 19.4739 45.1631 18.694C45.0975 18.4758 45.0506 18.2259 45.0896 18.0072C45.3509 16.5428 45.5913 15.071 45.9368 13.6253C46.1263 12.8323 46.9401 12.4096 47.742 12.5198C48.1984 12.584 48.6673 12.6244 49.1095 12.7494C49.951 12.9891 50.0183 13.1089 49.9686 13.9922C49.8623 15.8918 49.752 17.7908 49.6349 19.6909C49.4585 22.5788 49.2735 25.4656 49.0942 28.3525C49.0852 28.4848 49.0931 28.6183 49.2039 28.8018C49.9601 27.5884 50.7004 26.366 51.478 25.1691C51.8671 24.5681 52.2912 23.9859 52.7584 23.4457C53.2595 22.8663 53.9568 22.6294 54.6971 22.7441C55.7744 22.9123 56.7511 23.3611 57.3845 24.2938C57.6057 24.6176 57.734 25.0907 57.7075 25.4827C57.6158 26.8182 57.4202 28.1457 57.2929 29.4783C57.0384 32.143 56.6917 34.8094 57.0322 37.4946C57.0888 37.936 57.1855 38.3745 57.2743 38.8108C57.5672 40.2411 56.6544 41.1903 55.2128 41.0336C54.3905 40.9427 53.674 40.7666 53.3765 39.8969C53.2295 39.4765 53.1051 39.0386 53.061 38.5989C52.9778 37.7929 52.915 36.9777 52.9235 36.166C52.9439 34.2278 53.0151 32.2873 53.0502 30.348C53.0553 30.0748 52.9744 29.7987 52.9331 29.5226C52.85 29.4999 52.768 29.4778 52.6849 29.4545Z" fill="#09BCE3"/>
<path fill-rule="evenodd" clip-rule="evenodd" d="M117.649 20.7603C117.832 19.2528 118.007 17.7574 118.201 16.2648C118.3 15.4732 118.424 14.6822 118.559 13.8947C118.699 13.0638 118.796 12.2168 119.03 11.415C119.311 10.4672 119.668 9.53361 120.089 8.646C120.411 7.96795 121.075 7.82669 121.735 8.20797C122.385 8.58181 123.05 8.95224 123.621 9.43627C123.866 9.64313 124.033 10.1502 123.994 10.4895C123.785 12.3378 123.746 14.2644 123.19 16.0038C121.696 20.6664 121.382 25.3978 121.939 30.224C122.205 32.515 122.601 34.7912 122.921 37.0748C123.056 38.0395 122.725 38.5046 121.84 38.8007C120.602 39.2151 119.456 39.0068 118.663 37.9543C118.207 37.3492 118.06 36.4751 117.824 35.7045C117.672 35.2116 117.612 34.6871 117.351 34.1652C116.88 35.0683 116.387 35.96 115.943 36.8787C115.366 38.076 114.421 38.608 113.187 38.7182C111.399 38.8791 109.764 38.4647 108.33 37.3283C107.539 36.7016 107.215 35.7795 107.073 34.7851C106.867 33.3411 107.118 31.9424 107.543 30.5816C108.22 28.4061 108.879 26.2186 109.677 24.0911C110.141 22.8641 110.863 21.7453 111.477 20.5839C111.858 19.8632 112.505 19.6388 113.238 19.5786C114.618 19.4691 115.888 19.8274 117.082 20.5345C117.209 20.6102 117.337 20.688 117.465 20.7603C117.481 20.7678 117.506 20.7603 117.649 20.7603ZM111.602 34.1361C111.685 34.3247 111.815 34.9027 111.971 34.9122C112.315 34.9304 112.691 34.6938 113.017 34.4944C113.183 34.393 113.291 34.1598 113.388 33.9637C114.473 31.7829 115.569 29.6088 116.622 27.411C117.127 26.3585 117.167 25.2437 116.816 24.112C116.569 23.3089 115.855 23.4286 115.297 23.2616C114.843 23.1257 114.569 23.4468 114.401 23.8267C114.089 24.5312 113.838 25.2647 113.517 25.9603C112.348 28.4866 112.033 31.2245 111.602 34.1361Z" fill="#09BCE3"/>
<path fill-rule="evenodd" clip-rule="evenodd" d="M98.6047 35.3088C98.3021 35.9933 98.0142 36.721 97.667 37.4191C97.1049 38.541 96.5608 39.6782 95.907 40.7444C95.1385 41.9981 93.6494 42.5372 92.248 42.1941C89.3773 41.492 88.2524 39.7174 88.0805 36.8851C87.973 35.1151 87.8152 33.3422 87.8254 31.5716C87.8418 28.5683 87.917 25.5202 89.5209 22.8714C90.4071 21.4024 91.4081 19.8511 93.3853 19.6654C93.9723 19.6114 94.5961 19.6017 95.1633 19.7375C96.6066 20.0863 97.9956 20.5844 99.2669 21.4115C100.155 21.9898 101.116 22.4522 102.058 22.9441C102.458 23.1537 102.792 23.3741 102.706 23.9098C102.129 27.4993 103.079 30.9388 103.676 34.4204C103.93 35.9104 104.463 37.2703 105.039 38.6364C105.513 39.7566 105.291 40.2946 104.199 40.782C103.857 40.9348 103.497 41.0569 103.132 41.1455C101.888 41.4522 101.576 41.2205 101.036 40.0628C100.626 39.1795 100.005 38.4013 99.5491 37.5373C99.1866 36.8499 98.9355 36.1018 98.6047 35.3088ZM92.3667 34.6618C92.3831 34.9793 92.3899 35.2957 92.4171 35.6082C92.4691 36.237 92.4996 36.8715 92.6105 37.4884C92.6506 37.7128 92.8774 38.028 93.0612 38.0627C93.2382 38.0962 93.5312 37.8593 93.6658 37.6656C93.8926 37.3373 94.0781 36.9647 94.2064 36.5852C95.1611 33.774 96.1101 30.961 97.0291 28.1349C97.1846 27.6521 97.236 27.1136 97.236 26.6023C97.2298 25.4685 96.8181 24.5381 95.7532 24.0172C95.1458 23.7184 94.7194 23.7945 94.401 24.3955C93.9734 25.2049 93.512 26.0292 93.2761 26.904C92.5935 29.4369 92.3085 32.0334 92.3667 34.6618Z" fill="#09BCE3"/>
<path fill-rule="evenodd" clip-rule="evenodd" d="M32.4038 14.019C30.1513 14.019 28.4156 14.2524 26.7846 13.9406C25.6213 13.7173 23.6894 12.7312 23.7069 12.1348C23.7459 10.8947 24.6095 9.40982 25.5885 8.55094C26.4402 7.80623 27.8993 7.62162 29.1248 7.47507C36.1596 6.63549 43.2029 5.87433 50.2461 5.10746C50.9231 5.03475 51.7126 4.89272 52.2844 5.15118C53.8136 5.8459 56.285 6.51452 56.5203 7.6029C57.0553 10.0659 54.5895 10.6351 52.665 10.9248C49.3876 11.4156 46.0883 11.8439 42.7827 12.0024C39.7389 12.149 38.657 13.4049 38.9053 16.4854C39.4528 23.2338 39.7485 30.0044 40.1116 36.7659C40.2225 38.8262 40.5352 40.9546 40.1472 42.9309C39.9193 44.08 38.4812 44.9889 37.5899 46.0057C36.6686 45.1338 35.0902 44.3658 34.9346 43.3717C34.1197 38.1672 33.5598 32.9162 33.117 27.6629C32.7381 23.2157 32.6397 18.7429 32.4038 14.019Z" fill="#09BCE3"/>
<path fill-rule="evenodd" clip-rule="evenodd" d="M69.6233 26.7972C70.7578 28.4882 72.0653 29.9646 72.8034 31.6869C73.3542 32.9701 74.0742 34.6493 73.3118 36.0308C71.782 36.154 70.6232 34.9282 69.6262 34.0005C68.4165 32.8752 67.5829 31.3415 66.5864 29.9856C66.3324 30.0435 66.0779 30.1015 65.8223 30.1588C65.8223 31.3233 65.8184 32.489 65.8235 33.6535C65.8319 35.3764 66.0056 37.1208 65.7861 38.8142C65.6911 39.5566 64.6861 40.8171 64.2891 40.7473C63.46 40.599 62.5948 39.8412 62.0648 39.1022C61.6656 38.5489 61.6938 37.6355 61.6576 36.876C61.4173 31.7102 61.1945 26.5444 60.9988 21.378C60.9343 19.6994 61.255 18.1452 59.0986 17.1296C57.562 16.4064 57.821 14.6608 59.3565 13.6667C62.3352 11.7377 69.9101 13.2526 72.028 16.1321C74.5871 19.6108 74.0521 22.1931 69.6233 26.7972ZM65.8314 22.7879C66.1831 23.0208 66.5366 23.2514 66.8889 23.4843C67.77 22.3987 69.3564 21.3201 69.3694 20.2243C69.3892 18.4861 67.8113 17.6482 65.8314 17.943C65.8314 19.6318 65.8314 21.2099 65.8314 22.7879Z" fill="#09BCE3"/>
<path fill-rule="evenodd" clip-rule="evenodd" d="M81.1861 22.6817C80.284 24.9715 80.927 26.002 83.1242 26.0304C83.7593 26.0383 84.4538 26.015 85.0074 26.2621C85.5068 26.4871 86.2211 27.1091 86.1759 27.472C86.1057 28.0361 85.4972 28.5525 85.0583 29.037C84.93 29.179 84.6087 29.158 84.3735 29.1876C80.8688 29.6312 80.8688 29.6295 80.8739 33.1048C80.8756 33.9058 80.9485 34.7152 80.8614 35.5059C80.6245 37.6446 81.0973 39.0972 83.6501 39.1369C84.1557 39.1437 85.5413 38.9881 85.1466 40.3201C85.0923 41.8766 84.1173 41.5761 83.4861 41.7301C79.1331 42.7951 77.3958 41.4034 77.2635 36.9118C77.134 32.5112 76.975 28.1105 76.8749 23.7093C76.8483 22.517 76.7799 21.5251 75.3519 21.1116C74.9498 20.994 74.4018 20.0113 74.5381 19.6926C74.7722 19.1456 75.5617 18.3793 75.9983 18.4509C79.0489 18.9491 82.0791 19.6029 85.0872 20.3198C85.4022 20.3942 85.7924 21.2576 85.7002 21.6507C85.6035 22.0614 85.0001 22.58 84.5629 22.6363C83.4776 22.7766 82.3624 22.6817 81.1861 22.6817Z" fill="#09BCE3"/>
<path fill-rule="evenodd" clip-rule="evenodd" d="M188.753 16.8528C187.333 16.9022 186.074 15.5968 186.003 14.0001C185.931 12.4499 187.388 11.0394 189.102 11.0007C190.544 10.9667 191.643 12.1028 191.711 13.6939C191.779 15.3083 190.387 16.7977 188.753 16.8528Z" fill="#09BCE3"/>
<path fill-rule="evenodd" clip-rule="evenodd" d="M83.2503 46.4131C81.6589 46.1222 80.6166 46.0137 79.6286 45.7166C79.1671 45.578 78.4805 45.064 78.4896 44.7368C78.5049 44.2034 78.9906 43.2428 79.3068 43.2309C81.1635 43.1587 83.0377 43.2411 84.8847 43.4558C85.1692 43.4899 85.6522 44.8509 85.517 44.9651C84.7371 45.6212 83.7978 46.0859 83.2503 46.4131Z" fill="#09BCE3"/>
<path fill-rule="evenodd" clip-rule="evenodd" d="M55.6037 43.066C60.0144 43.4597 64.4245 43.8551 68.8346 44.251C69.8944 44.3458 70.5872 44.848 70.374 45.9949C70.1744 47.0628 70.4374 48.5363 68.5773 48.4545C65.8333 48.3347 63.0876 48.2915 60.3436 48.1676C57.8789 48.0569 55.4182 47.8422 52.9542 47.7496C51.6823 47.7019 51.0868 47.3951 51.421 45.9154C51.999 43.3512 51.9204 43.3325 55.6037 43.066Z" fill="#09BCE3"/>
<path fill-rule="evenodd" clip-rule="evenodd" d="M23.6447 48.8755C21.749 48.3541 20.0416 47.9911 18.4111 47.4123C15.1423 46.2506 11.8757 45.0605 8.69114 43.6876C7.62962 43.2297 6.76716 42.2317 5.92903 41.3677C5.66718 41.0967 5.78368 40.4576 5.72656 39.9873C6.19653 39.9475 6.73492 39.7385 7.12515 39.8964C9.30362 40.7775 11.4538 41.7295 13.5989 42.6918C16.9209 44.1823 20.2412 45.6774 23.531 47.2367C23.9331 47.4282 24.1423 48.0297 24.4398 48.441C24.1259 48.6125 23.8115 48.7847 23.6447 48.8755Z" fill="#09BCE3"/>
<path fill-rule="evenodd" clip-rule="evenodd" d="M24.0645 44.6992C23.3672 44.1198 22.5596 43.6324 21.9924 42.9451C19.6595 40.1225 17.3221 37.2965 15.1691 34.3381C14.5945 33.549 14.141 31.7211 14.5385 31.3484C15.6979 30.2652 16.6678 31.7284 17.2034 32.4799C19.4175 35.5809 21.4444 38.8177 23.4973 42.0323C23.9452 42.7332 24.2172 43.5478 24.5707 44.3101C24.4027 44.4396 24.2336 44.5697 24.0645 44.6992Z" fill="#09BCE3"/>
<path fill-rule="evenodd" clip-rule="evenodd" d="M21.1773 51.797C20.4755 52.2043 19.8177 52.7701 19.0599 52.9922C16.1451 53.8482 13.2071 54.6316 10.2584 55.3621C9.14312 55.6376 7.78071 55.7625 7.55562 54.2231C7.3475 52.8036 8.52045 52.3128 9.73354 52.1702C12.9673 51.7879 16.2033 51.4215 19.4422 51.0909C19.9631 51.0364 20.5054 51.196 21.0387 51.2551C21.0851 51.4357 21.1315 51.6164 21.1773 51.797Z" fill="#09BCE3"/>
<path fill-rule="evenodd" clip-rule="evenodd" d="M59.4939 7.85455C60.8512 8.65777 60.9366 9.35247 60.8438 9.75351C60.7059 10.35 60.0029 11.1322 59.452 11.2111C59.029 11.2708 58.1072 10.3966 58.0699 9.88873C58.0314 9.36783 58.0682 8.42487 59.4939 7.85455Z" fill="#09BCE3"/>
<path fill-rule="evenodd" clip-rule="evenodd" d="M96.3437 12.7034C95.3325 12.5034 95.2268 11.0981 95.3484 10.6914C95.5016 10.1847 95.7465 9.53426 96.7628 9.53767C97.0094 9.53824 97.826 10.3687 97.7632 10.7113C97.6564 11.2873 97.7666 12.8039 96.3437 12.7034Z" fill="#09BCE3"/>
<path fill-rule="evenodd" clip-rule="evenodd" d="M102.487 47.7297C102.017 48.876 101.231 48.5784 100.727 48.6505C100.53 48.6789 99.9614 47.9002 100.038 47.6207C100.158 47.1867 100.653 46.6198 101.047 46.5704C101.38 46.5289 102.36 46.7544 102.487 47.7297Z" fill="#09BCE3"/>
<path fill-rule="evenodd" clip-rule="evenodd" d="M56.4326 55.3729C56.0413 56.5362 55.3886 56.5527 55.0284 56.5356C54.6698 56.5186 54.1546 55.9187 54.0641 55.4973C54.0053 55.2235 54.5652 54.5469 54.8785 54.5265C55.2812 54.5003 56.1182 54.5253 56.4326 55.3729Z" fill="#09BCE3"/>
<path fill-rule="evenodd" clip-rule="evenodd" d="M27.7512 35.6111C27.3599 36.7744 26.7072 36.7909 26.347 36.7739C25.9884 36.7568 25.4732 36.157 25.3827 35.7355C25.3239 35.4617 25.8838 34.7851 26.1971 34.7647C26.5998 34.7386 27.4373 34.7636 27.7512 35.6111Z" fill="#09BCE3"/>
<path fill-rule="evenodd" clip-rule="evenodd" d="M203 10.8477C205.513 9.7151 208.385 9.24416 211.304 8.84099C214.54 8.39365 217.764 7.90898 220.996 7.45175C221.38 7.39731 221.828 7.32765 222.166 7.41064C222.75 7.55303 223.27 7.81038 223.817 8.01977C223.47 8.41343 223.244 9.04617 222.754 9.1581C220.858 9.59135 218.899 9.94428 216.922 10.17C213.153 10.6014 209.361 10.9391 205.571 11.2821C204.739 11.3571 203.881 11.2928 203.036 11.2928C203.023 11.1443 203.011 10.9954 203 10.8477Z" fill="#09BCE3"/>
<path fill-rule="evenodd" clip-rule="evenodd" d="M200 7.02127C200.608 6.31581 201.077 5.52963 201.852 4.92087C203.634 3.5206 205.545 2.19308 207.455 0.868963C207.942 0.530509 208.573 0.220211 209.225 0.0755405C209.775 -0.0474297 210.922 -0.0131619 210.989 0.12694C211.201 0.576562 211.28 1.20094 210.954 1.5828C210.533 2.07811 209.687 2.41427 209.003 2.80259C206.61 4.16288 204.216 5.52468 201.796 6.86402C201.41 7.07722 200.889 7.17964 200.43 7.33269C200.287 7.22913 200.144 7.12558 200 7.02127Z" fill="#09BCE3"/>
<path fill-rule="evenodd" clip-rule="evenodd" d="M207.729 14.0745C208.568 14.138 209.422 14.1567 210.245 14.274C212.757 14.633 215.267 15.0118 217.762 15.4233C218.802 15.595 219.78 15.9529 219.441 16.8297C219.115 17.6703 218.067 17.6787 216.972 17.5945C213.786 17.3494 211.255 16.0827 208.481 15.193C208.009 15.0418 207.495 14.9509 207 14.8325C207.244 14.5797 207.486 14.3273 207.729 14.0745Z" fill="#09BCE3"/>
<path fill-rule="evenodd" clip-rule="evenodd" d="M142.316 31.9217C142.088 32.5609 141.866 33.1995 141.634 33.8377C141.291 34.7769 141.005 35.7395 140.579 36.6486C140.106 37.6668 138.924 38.1219 137.516 37.9721C137.184 37.9378 136.843 37.8868 136.519 37.9212C134.564 38.1214 132.93 37.3621 131.417 36.4244C130.843 36.0698 130.471 35.4004 130.113 34.8211C129.237 33.406 128.548 31.9254 128.259 30.3023C128.058 29.1737 127.66 28.0723 127.498 26.9401C127.094 24.1406 126.728 21.3338 126.433 18.5214C126.22 16.4853 126.127 14.4358 126.023 12.3904C125.99 11.7481 125.958 11.0559 126.189 10.4693C126.365 10.0247 126.884 9.58157 127.375 9.36418C128.544 8.8462 129.822 8.90288 131.006 9.31165C131.398 9.44686 131.783 9.982 131.868 10.3871C132.17 11.8032 132.373 13.2412 132.553 14.6756C132.814 16.7568 133.063 18.8402 133.243 20.9261C133.375 22.4728 133.505 24.0319 133.428 25.576C133.344 27.287 133.918 28.8607 134.334 30.4723C134.479 31.0371 134.702 31.5889 134.936 32.1324C135.14 32.602 135.511 32.9868 136.123 32.8948C136.766 32.797 137.269 32.448 137.446 31.8411C138.315 28.8414 139.282 25.8578 139.355 22.724C139.377 21.7645 139.308 20.8045 139.331 19.8449C139.356 18.666 139.411 17.4875 139.493 16.3122C139.605 14.7057 139.712 13.0998 139.905 11.5011C140.024 10.5229 139.899 9.42868 140.947 8.72868C141.873 8.10617 142.982 7.88617 144.065 8.05467C144.931 8.19353 145.295 8.99493 145.473 9.71677C145.631 10.3632 145.652 11.045 145.648 11.7112C145.64 13.8923 145.53 16.075 145.581 18.2515C145.617 19.8881 145.845 21.5221 145.981 23.1572C146.032 23.7594 146.125 24.3658 146.097 24.9665C146.049 25.9468 146.362 26.8387 146.738 27.7321C147.344 29.1649 147.899 30.6122 148.521 32.0387C148.764 32.5942 149.102 33.121 149.443 33.6384C150.381 35.0624 150.164 35.6246 148.567 36.3968C147.431 36.9481 146.34 37.2295 145.201 36.5503C144.829 36.3287 144.49 35.9725 144.299 35.6074C143.665 34.4087 143.107 33.1766 142.519 31.9576C142.451 31.9462 142.383 31.9337 142.316 31.9217Z" fill="white"/>
<path fill-rule="evenodd" clip-rule="evenodd" d="M158.355 12.6787C159.298 11.5889 160.294 10.5299 161.171 9.39996C162.133 8.16362 163.528 8.0279 164.983 8.13637C167.226 8.30242 169.205 9.22878 171.202 10.06C171.419 10.151 171.582 10.4538 171.656 10.6856C172.195 12.3564 172.006 14.0379 171.728 15.723C171.256 18.5859 170.641 21.419 169.215 24.0484C167.884 26.5042 166.197 28.762 163.777 30.48C162.889 31.1092 161.757 31.484 160.693 31.8829C160.031 32.1338 159.797 32.4314 159.882 33.0781C160.375 36.7332 160.835 40.3918 161.281 44.0535C161.467 45.5886 160.464 46.3026 158.75 45.8801C157.608 45.6004 156.47 45.3125 155.346 44.9784C155.057 44.893 154.805 44.6519 154.585 44.4412C153.33 43.2444 152.542 41.8266 152.337 40.2124C151.866 36.5029 151.317 32.7933 151.079 29.0699C150.888 26.0646 151.097 23.0419 151.144 20.0263C151.177 17.6981 151.245 15.3683 151.269 13.0401C151.289 11.1936 151.264 9.34547 151.26 7.49893C151.258 6.81058 152.012 6.0112 152.942 6.00349C154.204 5.9927 155.564 5.95207 156.522 6.90258C156.856 7.2321 157.15 7.67987 157.23 8.1086C157.497 9.55829 157.659 11.0255 157.861 12.487C158.025 12.5497 158.193 12.615 158.355 12.6787ZM164.799 12.5487C164.473 12.7599 164.267 12.8339 164.166 12.9671C162.624 15.0095 161.053 17.0339 159.594 19.1211C159.207 19.6727 159.069 20.417 159.018 21.0848C158.954 21.9495 159.063 22.827 159.147 23.6948C159.289 25.1059 159.473 26.516 159.663 28.1446C160.224 27.6901 160.645 27.4578 160.901 27.1247C161.614 26.2096 162.304 25.2791 162.903 24.307C163.283 23.6927 163.602 23.0121 163.749 22.3263C164.152 20.4613 164.535 18.5869 164.756 16.7013C164.915 15.3822 164.795 14.0384 164.799 12.5487Z" fill="white"/>
</svg>
